<?xml version="1.0" encoding="utf-8"?>
<!-- Generator: Adobe Illustrator 22.1.0, SVG Export Plug-In . SVG Version: 6.00 Build 0)  -->
<svg version="1.1" id="Capa_1" xmlns="http://www.w3.org/2000/svg" xmlns:xlink="http://www.w3.org/1999/xlink" x="0px" y="0px"
	 viewBox="0 0 1080 1080" style="enable-background:new 0 0 1080 1080;" xml:space="preserve">
<style type="text/css">
	.st0{fill:url(#SVGID_1_);}
	.st1{fill:#FFFFFF;}
</style>
<linearGradient id="SVGID_1_" gradientUnits="userSpaceOnUse" x1="38.7902" y1="539.8592" x2="1041.4176" y2="539.8592">
	<stop  offset="0" style="stop-color:#70CEF4;stop-opacity:0.8"/>
	<stop  offset="0.5317" style="stop-color:#8BC43F;stop-opacity:0.8"/>
	<stop  offset="1" style="stop-color:#F8A41E;stop-opacity:0.8"/>
</linearGradient>
<circle class="st0" cx="540.1" cy="539.9" r="501.3"/>
<g>
	<path class="st1" d="M134.3,576.8c0,10.7,2.6,18.6,7.7,23.7c5.1,5.1,12,7.6,20.6,7.6c5,0,9.7-0.8,14-2.3c4.4-1.5,8.3-3.5,11.9-5.9
		l4.5,7.1c-4,3-8.6,5.5-13.9,7.4c-5.3,1.9-11.1,2.9-17.6,2.9c-11.7,0-20.9-3.3-27.4-9.9c-6.6-6.6-9.9-16.7-9.9-30.4v-60.9H97v-8.8
		h27.2v-44.6h10.1v44.6h54.4v8.8h-54.4V576.8z"/>
	<path class="st1" d="M304.2,602.1c-2.9,2.6-6,4.8-9.3,6.8c-3.4,1.9-6.8,3.5-10.2,4.7c-3.4,1.2-6.8,2.1-10,2.8c-3.2,0.6-6.2,1-8.9,1
		c-16.9,0-29.9-4.6-39.1-13.7c-9.2-9.1-13.8-21.9-13.8-38.4v-57.9h10.3v57.9c0,13.9,3.6,24.3,10.7,31.3c7.1,7,17.8,10.5,31.9,10.5
		c4.6,0,9.1-0.8,13.7-2.2c4.6-1.5,8.7-3.5,12.3-6.1c3.6-2.6,6.6-5.6,8.9-9.2c2.3-3.6,3.4-7.4,3.4-11.6v-70.5h9.2v107.2h-9.2V602.1z"
		/>
	<path class="st1" d="M415.3,464.5c6,0,11.6,1.1,16.8,3.3c5.2,2.2,9.8,5.3,13.6,9.2c3.9,3.9,6.9,8.5,9.2,13.7
		c2.3,5.2,3.4,10.8,3.4,16.8c0,5.7-1,11-2.9,15.8c-1.9,4.8-4.8,9-8.5,12.8c5.4,3.9,9.6,8.7,12.6,14.5c3,5.8,4.5,12.3,4.5,19.4
		c0,6.1-1.2,11.9-3.5,17.3c-2.4,5.4-5.5,10-9.5,13.9c-4,3.9-8.7,7.1-14,9.4c-5.4,2.4-11.1,3.6-17.3,3.8h-71.4V464.5H415.3z
		 M415.3,525.6c4.7-0.3,8.8-2.2,12.1-5.7c3.4-3.5,5-7.6,5-12.3c0-2.4-0.5-4.7-1.4-6.9c-0.9-2.1-2.2-4-3.8-5.7c-1.6-1.6-3.4-3-5.5-4
		c-2.1-1-4.3-1.6-6.5-1.7h-40.9v36.2H415.3z M419.8,589.4c2.6-0.1,5-0.8,7.3-1.8c2.3-1.1,4.2-2.5,5.9-4.3c1.6-1.8,3-3.8,4-6.1
		c1-2.3,1.5-4.7,1.5-7.3c0-2.6-0.5-5-1.4-7.4c-0.9-2.4-2.3-4.4-4-6.2c-1.7-1.8-3.7-3.2-6-4.3c-2.3-1.1-4.7-1.6-7.3-1.6h-45.4v39
		H419.8z"/>
	<path class="st1" d="M543.3,616.4c-7.9,0-15.2-1.4-22-4.3c-6.8-2.9-12.7-6.8-17.7-11.7c-5-4.9-8.9-10.8-11.8-17.6
		c-2.9-6.8-4.3-14.1-4.3-22c0-7.9,1.4-15.2,4.3-22c2.9-6.8,6.8-12.6,11.8-17.6c5-4.9,10.9-8.8,17.7-11.7c6.8-2.9,14.1-4.3,22-4.3
		c7.9,0,15.2,1.4,22,4.3c6.8,2.9,12.7,6.8,17.8,11.7c5.1,4.9,9,10.8,11.9,17.6c2.9,6.8,4.3,14.1,4.3,22c0,7.9-1.4,15.2-4.3,22
		c-2.9,6.8-6.8,12.6-11.9,17.6c-5.1,4.9-11,8.8-17.8,11.7C558.4,615,551.1,616.4,543.3,616.4z M543.3,529.2c-4.3,0-8.3,0.9-12.1,2.6
		c-3.8,1.7-7.1,4-9.9,6.9c-2.8,2.9-5,6.2-6.6,10.1c-1.6,3.9-2.5,7.9-2.7,12.2c0,4.4,0.8,8.6,2.4,12.4c1.6,3.9,3.8,7.2,6.5,10
		c2.8,2.8,6.1,5,10,6.6c3.9,1.6,8,2.5,12.4,2.5c4.4,0,8.6-0.8,12.4-2.5c3.9-1.6,7.2-3.9,10-6.6c2.8-2.8,5-6.1,6.6-10
		c1.6-3.9,2.5-8,2.5-12.4c0-4.4-0.8-8.6-2.5-12.4c-1.6-3.9-3.9-7.2-6.6-10.1c-2.8-2.9-6.1-5.1-10-6.8
		C551.8,530,547.7,529.2,543.3,529.2z"/>
	<path class="st1" d="M699.9,503.9v23.8h-48v45.7c0,6.7,1.6,11.6,4.7,14.8c3.1,3.1,7.2,4.7,12.2,4.7c3.7,0,7.8-1,12.1-3
		c4.4-2,8.6-4.6,12.8-7.9l12.6,19.7c-5.4,4.6-11.4,8.3-18,11.1c-6.6,2.9-13.4,4.3-20.6,4.3c-12.9,0-22.9-3.6-30.1-10.7
		c-7.2-7.1-10.8-18.1-10.8-32.8v-45.9h-24v-23.8h24v-39.4h25.1v39.4H699.9z"/>
	<path class="st1" d="M735.3,499.4c-4.1,0-7.7-1.5-10.6-4.4c-2.9-2.9-4.4-6.5-4.4-10.6c0-4.1,1.5-7.7,4.4-10.7
		c2.9-3,6.5-4.5,10.6-4.5c4.1,0,7.7,1.5,10.6,4.5c2.9,3,4.4,6.6,4.4,10.7c0,4.1-1.5,7.7-4.4,10.6C743,498,739.5,499.4,735.3,499.4z
		 M723.1,507.6h24.4v106.7h-24.4V507.6z"/>
	<path class="st1" d="M868.3,614.3h-33.7l-39-37.7v37.7h-24.4V469.6h24.4v72.2l36.9-34.3H867l-55.5,51.7L868.3,614.3z"/>
	<path class="st1" d="M955.6,606.6c-4.6,3.1-9.5,5.6-14.9,7.4c-5.4,1.8-11,2.7-17,2.7c-7.7,0-15-1.5-21.8-4.4
		c-6.8-2.9-12.7-6.9-17.7-12c-5-5.1-9-11-11.9-17.7c-2.9-6.7-4.4-13.9-4.4-21.6c0-7.7,1.5-15,4.4-21.8c2.9-6.8,6.9-12.7,11.9-17.7
		c5-5,10.9-9,17.7-11.9c6.8-2.9,14-4.4,21.8-4.4c6,0,11.7,0.9,17,2.7c5.4,1.8,10.3,4.3,14.9,7.4v-7.7h23.8v106.5h-23.8V606.6z
		 M923.6,528.4c-4.4,0-8.6,0.9-12.6,2.6c-4,1.7-7.5,4-10.4,7c-2.9,2.9-5.3,6.4-7,10.3c-1.7,3.9-2.6,8.2-2.6,12.8
		c0,4.4,0.9,8.6,2.6,12.6c1.7,4,4,7.5,7,10.4c2.9,2.9,6.4,5.3,10.4,7c4,1.7,8.2,2.6,12.6,2.6c4.6,0,8.8-0.9,12.8-2.6
		c3.9-1.7,7.4-4,10.3-7c2.9-2.9,5.3-6.4,7-10.4c1.7-4,2.6-8.2,2.6-12.6c0-4.6-0.9-8.8-2.6-12.8c-1.7-3.9-4-7.4-7-10.3
		c-2.9-2.9-6.4-5.3-10.3-7C932.5,529.2,928.2,528.4,923.6,528.4z"/>
</g>
</svg>
